<?xml version="1.0" encoding="UTF-8"?>
<svg xmlns="http://www.w3.org/2000/svg" xmlns:xlink="http://www.w3.org/1999/xlink" width="30pt" height="30pt" viewBox="0 0 30 30" version="1.1">
<g id="surface1">
<path style=" stroke:none;fill-rule:nonzero;fill:rgb(252,188,77);fill-opacity:1;" d="M 30 4.6875 L 30 25.3125 C 30 26.867188 28.558594 28.125 26.785156 28.125 L 3.214844 28.125 C 1.441406 28.125 0 26.867188 0 25.3125 L 0 4.6875 C 0 3.132812 1.441406 1.875 3.214844 1.875 L 26.785156 1.875 C 28.558594 1.875 30 3.132812 30 4.6875 Z M 6.195312 12.921875 L 14.429688 20.125 C 14.746094 20.402344 15.253906 20.402344 15.570312 20.125 L 23.804688 12.921875 C 24.316406 12.476562 23.953125 11.71875 23.238281 11.71875 L 6.761719 11.71875 C 6.046875 11.71875 5.683594 12.476562 6.195312 12.921875 Z M 6.195312 12.921875 "/>
</g>
</svg>
