<?xml version="1.0" encoding="UTF-8"?>
<svg xmlns="http://www.w3.org/2000/svg" xmlns:xlink="http://www.w3.org/1999/xlink" width="18pt" height="18pt" viewBox="0 0 18 18" version="1.1">
<g id="surface1">
<path style=" stroke:none;fill-rule:nonzero;fill:rgb(0%,0%,0%);fill-opacity:1;" d="M 17.753906 15.5625 L 14.25 12.058594 C 14.089844 11.898438 13.875 11.8125 13.652344 11.8125 L 13.078125 11.8125 C 14.046875 10.570312 14.625 9.011719 14.625 7.3125 C 14.625 3.273438 11.351562 0 7.3125 0 C 3.273438 0 0 3.273438 0 7.3125 C 0 11.351562 3.273438 14.625 7.3125 14.625 C 9.011719 14.625 10.570312 14.046875 11.8125 13.078125 L 11.8125 13.652344 C 11.8125 13.875 11.898438 14.089844 12.058594 14.25 L 15.5625 17.753906 C 15.894531 18.085938 16.429688 18.085938 16.753906 17.753906 L 17.75 16.757812 C 18.082031 16.429688 18.082031 15.894531 17.753906 15.5625 Z M 7.3125 11.8125 C 4.828125 11.8125 2.8125 9.800781 2.8125 7.3125 C 2.8125 4.828125 4.824219 2.8125 7.3125 2.8125 C 9.796875 2.8125 11.8125 4.824219 11.8125 7.3125 C 11.8125 9.796875 9.800781 11.8125 7.3125 11.8125 Z M 7.3125 11.8125 "/>
</g>
</svg>
