<?xml version="1.0" encoding="UTF-8"?>
<svg xmlns="http://www.w3.org/2000/svg" xmlns:xlink="http://www.w3.org/1999/xlink" width="15pt" height="12pt" viewBox="0 0 15 12" version="1.1">
<g id="surface1">
<path style=" stroke:none;fill-rule:nonzero;fill:rgb(0%,0%,0%);fill-opacity:1;" d="M 9.046875 5.355469 C 9.089844 5.582031 9.121094 5.808594 9.121094 6.105469 C 9.121094 8.675781 7.398438 10.5 4.800781 10.5 C 2.3125 10.5 0.300781 8.488281 0.300781 6 C 0.300781 3.511719 2.3125 1.5 4.800781 1.5 C 6.015625 1.5 7.027344 1.941406 7.8125 2.679688 L 6.59375 3.851562 C 6.261719 3.53125 5.679688 3.15625 4.800781 3.15625 C 3.265625 3.15625 2.011719 4.429688 2.011719 6 C 2.011719 7.570312 3.265625 8.84375 4.800781 8.84375 C 6.582031 8.84375 7.25 7.558594 7.355469 6.902344 L 4.800781 6.902344 L 4.800781 5.355469 Z M 13.394531 5.507812 L 13.394531 4.199219 L 12.082031 4.199219 L 12.082031 5.507812 L 10.773438 5.507812 L 10.773438 6.820312 L 12.082031 6.820312 L 12.082031 8.125 L 13.394531 8.125 L 13.394531 6.820312 L 14.699219 6.820312 L 14.699219 5.507812 Z M 13.394531 5.507812 "/>
</g>
</svg>
