<?xml version="1.0" encoding="UTF-8"?>
<svg xmlns="http://www.w3.org/2000/svg" xmlns:xlink="http://www.w3.org/1999/xlink" width="15pt" height="15pt" viewBox="0 0 15 15" version="1.1">
<g id="surface1">
<path style=" stroke:none;fill-rule:nonzero;fill:rgb(0%,0%,0%);fill-opacity:1;" d="M 7.5 0.234375 C 3.355469 0.234375 0 3.484375 0 7.5 C 0 11.515625 3.355469 14.765625 7.5 14.765625 C 11.644531 14.765625 15 11.515625 15 7.5 C 15 3.484375 11.644531 0.234375 7.5 0.234375 Z M 11.183594 5.210938 L 9.953125 10.832031 C 9.863281 11.230469 9.617188 11.328125 9.273438 11.140625 L 7.398438 9.800781 L 6.496094 10.644531 C 6.394531 10.742188 6.3125 10.824219 6.117188 10.824219 L 6.25 8.972656 L 9.726562 5.933594 C 9.878906 5.804688 9.691406 5.730469 9.492188 5.859375 L 5.199219 8.480469 L 3.347656 7.917969 C 2.945312 7.796875 2.9375 7.53125 3.433594 7.34375 L 10.664062 4.640625 C 11 4.523438 11.292969 4.71875 11.183594 5.210938 Z M 11.183594 5.210938 "/>
</g>
</svg>
